G04 #@! TF.FileFunction,Copper,L1,Top,Signal*
%FSLAX46Y46*%
G04 Gerber Fmt 4.6, Leading zero omitted, Abs format (unit mm)*
G04 Created by KiCad (PCBNEW 4.0.2+dfsg1-stable) date mar 17 ene 2017 15:42:20 COT*
%MOMM*%
G01*
G04 APERTURE LIST*
%ADD10C,0.100000*%
%ADD11R,2.500000X1.100000*%
%ADD12O,2.500000X1.100000*%
%ADD13O,1.100000X2.400000*%
%ADD14C,1.600000*%
%ADD15R,2.032000X2.032000*%
%ADD16O,2.032000X2.032000*%
%ADD17C,2.500000*%
%ADD18C,3.000000*%
%ADD19R,2.235200X2.235200*%
%ADD20C,1.524000*%
%ADD21R,1.524000X1.524000*%
%ADD22C,2.800000*%
%ADD23O,2.800000X2.800000*%
%ADD24O,3.500120X1.699260*%
G04 APERTURE END LIST*
D10*
D11*
X187260000Y-91440000D03*
D12*
X187260000Y-93440000D03*
X187260000Y-95440000D03*
X187260000Y-97440000D03*
X187260000Y-99440000D03*
X187260000Y-101440000D03*
X187260000Y-103440000D03*
X187260000Y-105440000D03*
X202660000Y-105440000D03*
X202560000Y-103440000D03*
X202660000Y-101440000D03*
X202660000Y-99440000D03*
X202660000Y-97440000D03*
X202660000Y-95440000D03*
X202660000Y-93440000D03*
X202660000Y-91440000D03*
D13*
X189950000Y-107190000D03*
X191950000Y-107190000D03*
X193950000Y-107190000D03*
X195950000Y-107190000D03*
X197950000Y-107190000D03*
X199950000Y-107190000D03*
D14*
X181150000Y-105800000D03*
X176150000Y-105800000D03*
X183300000Y-88300000D03*
X178300000Y-88300000D03*
D15*
X176800000Y-97500000D03*
D16*
X176800000Y-94960000D03*
D15*
X207010000Y-90170000D03*
D16*
X207010000Y-92710000D03*
D17*
X193200000Y-111050000D03*
D18*
X181000000Y-111050000D03*
X180950000Y-123100000D03*
D17*
X193200000Y-123050000D03*
D18*
X195150000Y-117100000D03*
D15*
X174400000Y-110300000D03*
D16*
X174400000Y-112840000D03*
D19*
X199350000Y-118050000D03*
D20*
X201400000Y-112540000D03*
X201400000Y-115080000D03*
D21*
X201400000Y-110000000D03*
D22*
X208150000Y-117650000D03*
D23*
X208150000Y-97330000D03*
D24*
X181350000Y-98550000D03*
X181350000Y-96010000D03*
X181350000Y-101090000D03*
M02*
