M48
METRIC,TZ
T1C0.650
T2C0.800
T3C1.000
T4C1.001
T5C1.016
T6C1.300
T7C1.400
%
G90
G05
T1
X187.96Y-91.44
X187.96Y-93.44
X187.96Y-95.44
X187.96Y-97.44
X187.96Y-99.44
X187.96Y-101.44
X187.96Y-103.44
X187.96Y-105.44
X201.96Y-91.44
X201.96Y-93.44
X201.96Y-95.44
X201.96Y-97.44
X201.96Y-99.44
X201.96Y-101.44
X201.96Y-103.44
X201.96Y-105.44
T2
X176.15Y-105.8
X178.3Y-88.3
X181.15Y-105.8
X183.3Y-88.3
X201.4Y-110.
X201.4Y-112.54
X201.4Y-115.08
T3
X193.2Y-111.05
X193.2Y-123.05
T4
X181.35Y-96.01
X181.35Y-98.55
X181.35Y-101.09
T5
X174.4Y-110.3
X174.4Y-112.84
X176.8Y-94.96
X176.8Y-97.5
X199.35Y-118.05
X207.01Y-90.17
X207.01Y-92.71
T6
X180.95Y-123.1
X181.Y-111.05
X195.15Y-117.1
T7
X208.15Y-97.33
X208.15Y-117.65
T0
M30
